<svg xmlns="http://www.w3.org/2000/svg" xmlns:xlink="http://www.w3.org/1999/xlink" version="1.1" style="shape-rendering:geometricPrecision; text-rendering:geometricPrecision; image-rendering:optimizeQuality; fill-rule:evenodd; clip-rule:evenodd" viewBox="133.5 1842.38 4754.18 1314.18">
<g><path style="opacity:0.993" fill="#000000" d="M 529.5,1842.5 C 666.403,1842.17 803.237,1842.5 940,1843.5C 1072.09,2273.39 1204.26,2703.22 1336.5,3133C 1250.64,3134.5 1164.64,3135 1078.5,3134.5C 1047.34,3029.55 1016.34,2924.55 985.5,2819.5C 818.5,2819.33 651.5,2819.5 484.5,2820C 453.276,2924.51 421.942,3029.01 390.5,3133.5C 304.836,3134.5 219.169,3134.83 133.5,3134.5C 265.189,2703.75 397.189,2273.08 529.5,1842.5 Z M 734.5,1982.5 C 796.811,2189.72 859.144,2397.05 921.5,2604.5C 796.835,2605.67 672.168,2605.83 547.5,2605C 610.133,2397.6 672.467,2190.1 734.5,1982.5 Z"/></g>
<g><path style="opacity:0.994" fill="#000000" d="M 1471.5,1842.5 C 1549.83,1842.5 1628.17,1842.5 1706.5,1842.5C 1706.33,2047.17 1706.5,2251.83 1707,2456.5C 1715.51,2377.22 1745.51,2307.55 1797,2247.5C 1874.79,2166.97 1967.79,2141.97 2076,2172.5C 2136.6,2194.1 2184.6,2231.77 2220,2285.5C 2259.39,2348.03 2280.39,2416.36 2283,2490.5C 2283.5,2705.17 2283.67,2919.83 2283.5,3134.5C 2205.17,3134.5 2126.83,3134.5 2048.5,3134.5C 2048.67,2922.5 2048.5,2710.5 2048,2498.5C 2040.11,2393.27 1983.44,2339.27 1878,2336.5C 1838.56,2335.54 1802.4,2345.71 1769.5,2367C 1739.08,2390.64 1719.91,2421.48 1712,2459.5C 1709.35,2472.04 1707.68,2484.7 1707,2497.5C 1706.5,2709.83 1706.33,2922.17 1706.5,3134.5C 1628.17,3134.5 1549.83,3134.5 1471.5,3134.5C 1471.5,2703.83 1471.5,2273.17 1471.5,1842.5 Z"/></g>
<g><path style="opacity:0.991" fill="#000000" d="M 2895.5,2159.5 C 2976.22,2155.67 3053.56,2169.84 3127.5,2202C 3208.9,2240.73 3270.73,2299.9 3313,2379.5C 3348.12,2448.31 3368.45,2521.31 3374,2598.5C 3377.06,2636.5 3377.23,2674.5 3374.5,2712.5C 3148.5,2712.5 2922.5,2712.5 2696.5,2712.5C 2701.27,2767.26 2716.44,2818.92 2742,2867.5C 2793.58,2956.7 2870.08,2991.2 2971.5,2971C 3014.25,2958.55 3048.75,2934.38 3075,2898.5C 3091.22,2875.72 3104.06,2851.05 3113.5,2824.5C 3194.5,2823.17 3275.5,2823.17 3356.5,2824.5C 3331.85,2913.69 3285.52,2989.19 3217.5,3051C 3131.35,3122.61 3031.85,3157.78 2919,3156.5C 2827.6,3157.86 2743.1,3134.69 2665.5,3087C 2595.73,3040.89 2543.57,2979.73 2509,2903.5C 2480.91,2840.14 2464.91,2773.8 2461,2704.5C 2453.48,2606.63 2468.15,2512.29 2505,2421.5C 2568.35,2280.52 2676.18,2195.69 2828.5,2167C 2850.87,2163.43 2873.2,2160.93 2895.5,2159.5 Z M 2903.5,2338.5 C 2977.76,2335.38 3036.59,2363.72 3080,2423.5C 3106.25,2462.74 3123.42,2505.74 3131.5,2552.5C 2989.17,2552.5 2846.83,2552.5 2704.5,2552.5C 2714.54,2496.46 2737.71,2446.79 2774,2403.5C 2808.79,2365.19 2851.95,2343.52 2903.5,2338.5 Z"/></g>
<g><path style="opacity:0.993" fill="#000000" d="M 4046.5,2159.5 C 4150.7,2157.67 4230.2,2200.67 4285,2288.5C 4317.65,2345.46 4335.98,2406.79 4340,2472.5C 4344.89,2398.16 4367.89,2330.16 4409,2268.5C 4473.7,2179.81 4560.2,2145.64 4668.5,2166C 4732.57,2182.27 4783.4,2217.43 4821,2271.5C 4859.24,2330.4 4880.91,2395.07 4886,2465.5C 4887.49,2688.49 4887.99,2911.49 4887.5,3134.5C 4809.17,3134.5 4730.83,3134.5 4652.5,3134.5C 4652.67,2919.17 4652.5,2703.83 4652,2488.5C 4650.61,2451.01 4639.28,2417.01 4618,2386.5C 4594.67,2359.58 4565.17,2343.75 4529.5,2339C 4489.24,2332.18 4450.91,2337.85 4414.5,2356C 4375.5,2380.44 4352.33,2415.61 4345,2461.5C 4343.01,2472.76 4341.68,2484.09 4341,2495.5C 4340.5,2708.5 4340.33,2921.5 4340.5,3134.5C 4262.17,3134.5 4183.83,3134.5 4105.5,3134.5C 4105.67,2921.5 4105.5,2708.5 4105,2495.5C 4104.16,2462.13 4095.83,2430.8 4080,2401.5C 4054.7,2363.08 4018.86,2341.91 3972.5,2338C 3933.59,2332.6 3896.92,2339.27 3862.5,2358C 3833.93,2376.61 3814.1,2402.11 3803,2434.5C 3797.02,2453.05 3793.36,2472.05 3792,2491.5C 3791.5,2705.83 3791.33,2920.17 3791.5,3134.5C 3713.17,3134.5 3634.83,3134.5 3556.5,3134.5C 3556.5,2816.83 3556.5,2499.17 3556.5,2181.5C 3634.83,2181.5 3713.17,2181.5 3791.5,2181.5C 3791.33,2271.17 3791.5,2360.83 3792,2450.5C 3799.25,2382.73 3822.25,2321.06 3861,2265.5C 3895.14,2219.03 3939.64,2186.86 3994.5,2169C 4011.68,2164.19 4029.01,2161.03 4046.5,2159.5 Z"/></g>
</svg>