<svg xmlns="http://www.w3.org/2000/svg" xmlns:xlink="http://www.w3.org/1999/xlink" version="1.1" style="shape-rendering:geometricPrecision; text-rendering:geometricPrecision; image-rendering:optimizeQuality; fill-rule:evenodd; clip-rule:evenodd" viewBox="44.62 2853.57 7402.52 1801.96">
<g><path style="opacity:0.993" fill="#000000" d="M 1029.5,2854.5 C 1062.4,2849.86 1085.57,2862.53 1099,2892.5C 1316.55,3404.49 1534.89,3916.16 1754,4427.5C 1786.24,4480.07 1831.74,4515.9 1890.5,4535C 1898.68,4537.42 1907.02,4539.09 1915.5,4540C 1944.53,4540.06 1973.53,4540.73 2002.5,4542C 2032.8,4552.68 2046.63,4574.18 2044,4606.5C 2041.5,4625 2032.33,4639.17 2016.5,4649C 2010.48,4652.01 2004.15,4654.01 1997.5,4655C 1782.5,4655.67 1567.5,4655.67 1352.5,4655C 1319.01,4646.53 1303.18,4625.03 1305,4590.5C 1309.39,4564.78 1324.22,4548.61 1349.5,4542C 1377.8,4540.72 1406.13,4540.05 1434.5,4540C 1456.68,4538.82 1469.84,4527.32 1474,4505.5C 1475.24,4491.37 1473.24,4477.71 1468,4464.5C 1438.83,4396.17 1409.67,4327.83 1380.5,4259.5C 1097.5,4258.33 814.501,4258.17 531.5,4259C 502.538,4325.09 473.704,4391.26 445,4457.5C 439.091,4472.29 436.424,4487.62 437,4503.5C 439.213,4526.04 451.713,4538.21 474.5,4540C 500.833,4540.33 527.167,4540.67 553.5,4541C 575.607,4543.81 591.44,4555.31 601,4575.5C 612.037,4610.1 601.203,4634.93 568.5,4650C 563.594,4651.48 558.594,4652.48 553.5,4653C 400.167,4653.67 246.833,4653.67 93.5,4653C 66.2371,4649.07 50.0704,4633.57 45,4606.5C 42.3239,4577.67 53.8239,4556.84 79.5,4544C 84.0998,4542.68 88.7665,4541.68 93.5,4541C 182.464,4552.9 255.964,4525.06 314,4457.5C 322.114,4447.38 329.448,4436.72 336,4425.5C 376.609,4331.95 416.942,4238.28 457,4144.5C 635,3725.83 813,3307.17 991,2888.5C 995.5,2882 1000,2875.5 1004.5,2869C 1012.6,2863.62 1020.93,2858.79 1029.5,2854.5 Z M 954.5,3264.5 C 1080.74,3557.86 1206.4,3851.52 1331.5,4145.5C 1081.17,4145.5 830.833,4145.5 580.5,4145.5C 704.885,3851.73 829.551,3558.06 954.5,3264.5 Z"/></g>
<g><path style="opacity:0.995" fill="#000000" d="M 2183.5,2854.5 C 2394.17,2854.33 2604.83,2854.5 2815.5,2855C 2844.44,2861.78 2860.44,2879.94 2863.5,2909.5C 2861.32,2940.17 2845.32,2959 2815.5,2966C 2790.5,2966.33 2765.5,2966.67 2740.5,2967C 2691.2,2972.56 2658.36,2998.73 2642,3045.5C 2639.69,3053.68 2638.36,3062.01 2638,3070.5C 2637.5,3279.83 2637.33,3489.17 2637.5,3698.5C 2970.83,3698.5 3304.17,3698.5 3637.5,3698.5C 3637.67,3487.5 3637.5,3276.5 3637,3065.5C 3629.36,3014.86 3600.86,2982.7 3551.5,2969C 3546.2,2968.07 3540.87,2967.4 3535.5,2967C 3510.17,2966.67 3484.83,2966.33 3459.5,2966C 3438.22,2961.05 3423.39,2948.55 3415,2928.5C 3407.06,2892.21 3420.56,2868.04 3455.5,2856C 3737.63,2854.84 4019.8,2854.34 4302,2854.5C 4582.5,2854.67 4863,2854.83 5143.5,2855C 5164.52,2859.02 5179.35,2870.85 5188,2890.5C 5189.31,2894.42 5190.31,2898.42 5191,2902.5C 5191.67,3053.5 5191.67,3204.5 5191,3355.5C 5186.79,3380.37 5172.63,3396.54 5148.5,3404C 5112.5,3409.43 5089,3394.93 5078,3360.5C 5077.36,3229.06 5025.86,3122.89 4923.5,3042C 4858.8,2994.54 4786.13,2969.54 4705.5,2967C 4441.83,2966.5 4178.17,2966.33 3914.5,2966.5C 3914.5,3210.5 3914.5,3454.5 3914.5,3698.5C 4037.5,3698.67 4160.5,3698.5 4283.5,3698C 4330.15,3695.27 4363.31,3672.77 4383,3630.5C 4386.27,3622.08 4388.6,3613.42 4390,3604.5C 4391.21,3576.19 4391.88,3547.85 4392,3519.5C 4397.54,3493.96 4413.04,3478.46 4438.5,3473C 4471.1,3470.95 4492.27,3485.45 4502,3516.5C 4503.16,3595.64 4503.66,3674.8 4503.5,3754C 4503.66,3833.2 4503.16,3912.36 4502,3991.5C 4491.81,4023.35 4469.98,4037.85 4436.5,4035C 4412.14,4028.64 4397.31,4013.14 4392,3988.5C 4391.67,3964.5 4391.33,3940.5 4391,3916.5C 4387.12,3866.3 4361.62,3832.46 4314.5,3815C 4308.25,3813.28 4301.91,3811.95 4295.5,3811C 4168.5,3810.5 4041.5,3810.33 3914.5,3810.5C 3914.5,4053.83 3914.5,4297.17 3914.5,4540.5C 4183.5,4540.67 4452.5,4540.5 4721.5,4540C 4852.7,4527.69 4953.2,4466.19 5023,4355.5C 5060.78,4289.64 5079.45,4218.64 5079,4142.5C 5091.71,4111.89 5114.54,4099.06 5147.5,4104C 5172.2,4111.03 5186.7,4127.2 5191,4152.5C 5191.67,4303.5 5191.67,4454.5 5191,4605.5C 5187.31,4629.2 5174.14,4645.03 5151.5,4653C 5148.53,4653.79 5145.53,4654.46 5142.5,4655C 4862,4655.17 4581.5,4655.33 4301,4655.5C 4018.8,4655.66 3736.63,4655.16 3454.5,4654C 3421.12,4641.58 3407.62,4617.75 3414,4582.5C 3421.01,4561.49 3435.18,4547.99 3456.5,4542C 3485.14,4540.73 3513.8,4540.06 3542.5,4540C 3591.34,4532.16 3622.18,4504.33 3635,4456.5C 3635.83,4451.86 3636.5,4447.19 3637,4442.5C 3637.5,4231.83 3637.67,4021.17 3637.5,3810.5C 3304.17,3810.5 2970.83,3810.5 2637.5,3810.5C 2637.33,4019.83 2637.5,4229.17 2638,4438.5C 2641.45,4481.25 2662.28,4512.08 2700.5,4531C 2711.03,4535.71 2722.03,4538.71 2733.5,4540C 2761.86,4540.06 2790.2,4540.73 2818.5,4542C 2851.83,4552.82 2866.33,4575.65 2862,4610.5C 2855.5,4635.33 2839.67,4650.17 2814.5,4655C 2604.5,4655.67 2394.5,4655.67 2184.5,4655C 2164.25,4651.62 2150.08,4640.45 2142,4621.5C 2132.59,4593.19 2139.09,4569.36 2161.5,4550C 2169.09,4545.02 2177.43,4542.02 2186.5,4541C 2215.53,4540.94 2244.53,4540.27 2273.5,4539C 2322.56,4527.61 2351.39,4497.11 2360,4447.5C 2360.67,3985.5 2360.67,3523.5 2360,3061.5C 2353.31,3018.62 2329.81,2989.12 2289.5,2973C 2282.61,2970.86 2275.61,2969.19 2268.5,2968C 2239.86,2966.75 2211.19,2966.09 2182.5,2966C 2153.44,2958.26 2138.44,2939.26 2137.5,2909C 2140.1,2879.92 2155.43,2861.75 2183.5,2854.5 Z"/></g>
<g><path style="opacity:0.994" fill="#000000" d="M 5328.5,2854.5 C 5469.17,2854.33 5609.83,2854.5 5750.5,2855C 5772.31,2859.14 5787.14,2871.64 5795,2892.5C 5987.24,3343.31 6179.74,3793.98 6372.5,4244.5C 6566.37,3788.72 6760.54,3333.05 6955,2877.5C 6963.69,2866.91 6974.52,2859.41 6987.5,2855C 7125.5,2854.33 7263.5,2854.33 7401.5,2855C 7417.68,2858.17 7430.18,2866.67 7439,2880.5C 7454.14,2911.78 7447.97,2937.95 7420.5,2959C 7414.6,2962.52 7408.27,2964.86 7401.5,2966C 7373.14,2966.09 7344.81,2966.76 7316.5,2968C 7274.9,2975.61 7245.73,2998.78 7229,3037.5C 7226.22,3044.96 7224.22,3052.63 7223,3060.5C 7221.34,3518.49 7221.01,3976.49 7222,4434.5C 7226.32,4491.15 7256.15,4525.99 7311.5,4539C 7340.14,4540.27 7368.8,4540.94 7397.5,4541C 7425.74,4546.24 7442.24,4563.08 7447,4591.5C 7448.63,4620.76 7435.79,4640.59 7408.5,4651C 7404.89,4651.94 7401.22,4652.61 7397.5,4653C 7188.83,4653.67 6980.17,4653.67 6771.5,4653C 6740.39,4647.75 6724.06,4629.42 6722.5,4598C 6723.71,4568.78 6738.38,4550.12 6766.5,4542C 6795.14,4540.73 6823.8,4540.06 6852.5,4540C 6903.9,4531.26 6935.07,4501.43 6946,4450.5C 6947.66,4029.52 6948,3608.52 6947,3187.5C 6743.72,3664.66 6540.06,4141.66 6336,4618.5C 6326,4641.98 6308.16,4654.31 6282.5,4655.5C 6265.08,4654.54 6250.58,4647.54 6239,4634.5C 6234.58,4628.66 6230.91,4622.32 6228,4615.5C 6025,4138.83 5822,3662.17 5619,3185.5C 5618,3607.86 5618.34,4030.19 5620,4452.5C 5628.89,4494.05 5653.39,4521.89 5693.5,4536C 5699.74,4537.81 5706.07,4539.14 5712.5,4540C 5741.2,4540.06 5769.86,4540.73 5798.5,4542C 5823.33,4548.49 5838.16,4564.33 5843,4589.5C 5845.03,4626.14 5827.86,4647.31 5791.5,4653C 5638.5,4653.67 5485.5,4653.67 5332.5,4653C 5301.1,4648.43 5284.43,4630.26 5282.5,4598.5C 5283.27,4577.11 5292.27,4560.28 5309.5,4548C 5314.53,4545.21 5319.87,4543.21 5325.5,4542C 5354.13,4540.72 5382.8,4540.05 5411.5,4540C 5464.22,4530.94 5495.39,4500.11 5505,4447.5C 5505.67,3967.17 5505.67,3486.83 5505,3006.5C 5474.61,2983.73 5440.45,2970.57 5402.5,2967C 5377.5,2966.67 5352.5,2966.33 5327.5,2966C 5298.68,2958.33 5283.68,2939.5 5282.5,2909.5C 5284.86,2880.15 5300.2,2861.82 5328.5,2854.5 Z"/></g>
</svg>