<svg xmlns="http://www.w3.org/2000/svg" xmlns:xlink="http://www.w3.org/1999/xlink" version="1.1" style="shape-rendering:geometricPrecision; text-rendering:geometricPrecision; image-rendering:optimizeQuality; fill-rule:evenodd; clip-rule:evenodd" viewBox="155.5 1841.38 4709.18 1316.44">
<g><path style="opacity:0.992" fill="#fefffe" d="M 552.5,1841.5 C 690.07,1841.17 827.57,1841.5 965,1842.5C 1097.48,2273.43 1229.65,2704.43 1361.5,3135.5C 1275.5,3135.67 1189.5,3135.5 1103.5,3135C 1071.78,3029.96 1040.45,2924.79 1009.5,2819.5C 842.499,2819.17 675.499,2819.5 508.5,2820.5C 477.167,2925.17 445.833,3029.83 414.5,3134.5C 328.169,3135.67 241.835,3135.83 155.5,3135C 288.335,2703.99 420.669,2272.83 552.5,1841.5 Z M 758.5,1982.5 C 821.435,2190.22 883.769,2398.22 945.5,2606.5C 820.833,2606.67 696.166,2606.5 571.5,2606C 634.219,2398.29 696.553,2190.46 758.5,1982.5 Z"/></g>
<g><path style="opacity:0.992" fill="#fefffe" d="M 1478.5,1841.5 C 1557.17,1841.5 1635.83,1841.5 1714.5,1841.5C 1714.33,2044.17 1714.5,2246.83 1715,2449.5C 1724.95,2370.96 1755.95,2302.29 1808,2243.5C 1886.66,2165.29 1979.49,2141.79 2086.5,2173C 2149.49,2196.24 2198.66,2236.41 2234,2293.5C 2269.88,2353.82 2289.21,2419.15 2292,2489.5C 2292.5,2704.83 2292.67,2920.17 2292.5,3135.5C 2213.83,3135.5 2135.17,3135.5 2056.5,3135.5C 2056.67,2926.83 2056.5,2718.17 2056,2509.5C 2056.28,2473.62 2047.95,2439.96 2031,2408.5C 2004.95,2367.2 1967.45,2343.7 1918.5,2338C 1877.75,2332.18 1838.41,2337.18 1800.5,2353C 1758.42,2374.44 1731.92,2408.27 1721,2454.5C 1717.88,2468.34 1715.88,2482.34 1715,2496.5C 1714.5,2709.5 1714.33,2922.5 1714.5,3135.5C 1635.83,3135.5 1557.17,3135.5 1478.5,3135.5C 1478.5,2704.17 1478.5,2272.83 1478.5,1841.5 Z"/></g>
<g><path style="opacity:0.992" fill="#fefffe" d="M 2883.5,2159.5 C 2953.76,2156.23 3022.09,2166.06 3088.5,2189C 3186.92,2227.09 3260.42,2292.92 3309,2386.5C 3341.08,2451.49 3360.08,2520.15 3366,2592.5C 3369.57,2632.47 3370.07,2672.47 3367.5,2712.5C 3140.83,2712.17 2914.17,2712.5 2687.5,2713.5C 2692.78,2771.51 2709.62,2825.85 2738,2876.5C 2792.4,2962.76 2869.4,2994.09 2969,2970.5C 3011,2956.16 3044.67,2930.83 3070,2894.5C 3084.96,2872.92 3096.46,2849.59 3104.5,2824.5C 3185.83,2824.5 3267.17,2824.5 3348.5,2824.5C 3319.45,2931.65 3260.11,3017.48 3170.5,3082C 3099.28,3128.63 3020.95,3153.63 2935.5,3157C 2843.73,3162.14 2757.4,3143.14 2676.5,3100C 2595.99,3052.81 2536.49,2986.65 2498,2901.5C 2461.07,2814.62 2445.07,2723.95 2450,2629.5C 2452.55,2535.93 2476.89,2448.6 2523,2367.5C 2590.38,2258.84 2687.21,2192.34 2813.5,2168C 2836.83,2163.9 2860.17,2161.07 2883.5,2159.5 Z M 2899.5,2337.5 C 2967.77,2335.56 3022.94,2361.22 3065,2414.5C 3094.59,2455.89 3114.09,2501.73 3123.5,2552C 2980.83,2552.5 2838.17,2552.67 2695.5,2552.5C 2705.79,2496.59 2728.96,2446.92 2765,2403.5C 2801.23,2363.97 2846.07,2341.97 2899.5,2337.5 Z"/></g>
<g><path style="opacity:0.99" fill="#fefffe" d="M 4019.5,2159.5 C 4128.32,2156.81 4210.16,2202.15 4265,2295.5C 4283.98,2329.44 4297.65,2365.44 4306,2403.5C 4309.89,2423.17 4313.22,2442.84 4316,2462.5C 4321.79,2399.13 4340.79,2340.13 4373,2285.5C 4400.96,2239.87 4438.79,2205.04 4486.5,2181C 4551.7,2153.4 4617.37,2152.4 4683.5,2178C 4739.87,2202.6 4783.04,2241.77 4813,2295.5C 4841.78,2348.53 4858.45,2405.19 4863,2465.5C 4864.49,2688.82 4864.99,2912.15 4864.5,3135.5C 4785.83,3135.5 4707.17,3135.5 4628.5,3135.5C 4628.67,2921.5 4628.5,2707.5 4628,2493.5C 4627.16,2460.13 4618.83,2428.8 4603,2399.5C 4579.67,2363.58 4546.5,2343.08 4503.5,2338C 4463.47,2331.53 4425.47,2337.53 4389.5,2356C 4361.28,2373.23 4341.45,2397.39 4330,2428.5C 4322.33,2450.18 4318,2472.51 4317,2495.5C 4316.5,2708.83 4316.33,2922.17 4316.5,3135.5C 4237.83,3135.5 4159.17,3135.5 4080.5,3135.5C 4080.67,2927.17 4080.5,2718.83 4080,2510.5C 4080.95,2471.98 4072.62,2435.64 4055,2401.5C 4031.18,2364.82 3997.35,2343.65 3953.5,2338C 3915.1,2331.77 3878.43,2337.11 3843.5,2354C 3813.41,2371.1 3792.24,2395.94 3780,2428.5C 3772.72,2448.54 3768.39,2469.21 3767,2490.5C 3766.5,2705.5 3766.33,2920.5 3766.5,3135.5C 3687.5,3135.5 3608.5,3135.5 3529.5,3135.5C 3529.5,2817.5 3529.5,2499.5 3529.5,2181.5C 3608.5,2181.5 3687.5,2181.5 3766.5,2181.5C 3766.33,2268.5 3766.5,2355.5 3767,2442.5C 3775.77,2373.14 3801.1,2310.8 3843,2255.5C 3888.47,2199.02 3947.3,2167.02 4019.5,2159.5 Z"/></g>
</svg>