<svg xmlns="http://www.w3.org/2000/svg" xmlns:xlink="http://www.w3.org/1999/xlink" version="1.1" style="shape-rendering:geometricPrecision; text-rendering:geometricPrecision; image-rendering:optimizeQuality; fill-rule:evenodd; clip-rule:evenodd" viewBox="-0.5 2841.5 7336.12 1579">
<g><path style="opacity:0.995" fill="#000000" d="M -0.5,4420.5 C -0.5,4405.17 -0.5,4389.83 -0.5,4374.5C 60.9989,4349.16 112.166,4310.16 153,4257.5C 183.025,4216.82 209.025,4173.49 231,4127.5C 244.445,4098.5 257.112,4069.16 269,4039.5C 421.333,3640.5 573.667,3241.5 726,2842.5C 791.766,2841.17 857.599,2841.17 923.5,2842.5C 1091.3,3297.72 1258.8,3753.05 1426,4208.5C 1432.88,4227.82 1440.55,4246.82 1449,4265.5C 1465.49,4303.99 1492.33,4332.82 1529.5,4352C 1556.5,4364 1584.5,4373 1613.5,4379C 1631.76,4382.72 1650.09,4386.05 1668.5,4389C 1669.49,4399.42 1669.82,4409.92 1669.5,4420.5C 1386.83,4420.5 1104.17,4420.5 821.5,4420.5C 821.18,4409.92 821.513,4399.42 822.5,4389C 871.824,4387.56 920.49,4381.22 968.5,4370C 989.67,4364.75 1009,4355.75 1026.5,4343C 1048.69,4323.45 1057.19,4298.95 1052,4269.5C 1050.23,4257.63 1047.56,4245.96 1044,4234.5C 996.735,4101.54 949.568,3968.54 902.5,3835.5C 736.168,3834.33 569.834,3834.17 403.5,3835C 375.142,3909.74 346.975,3984.57 319,4059.5C 303.796,4099.44 292.463,4140.44 285,4182.5C 267.042,4277.8 303.875,4340.3 395.5,4370C 423.934,4378.89 452.934,4385.22 482.5,4389C 483.487,4399.42 483.82,4409.92 483.5,4420.5C 322.167,4420.5 160.833,4420.5 -0.5,4420.5 Z M 652.5,3161.5 C 655.833,3161.5 659.167,3161.5 662.5,3161.5C 736.471,3370.91 811.138,3580.08 886.5,3789C 730.832,3789.83 575.166,3789.67 419.5,3788.5C 496.978,3579.39 574.645,3370.39 652.5,3161.5 Z"/></g>
<g><path style="opacity:0.996" fill="#000000" d="M 1695.5,2872.5 C 1962.83,2872.5 2230.17,2872.5 2497.5,2872.5C 2497.5,2882.17 2497.5,2891.83 2497.5,2901.5C 2453.45,2902.76 2410.12,2908.92 2367.5,2920C 2340.17,2927.22 2318.67,2942.39 2303,2965.5C 2297.12,2976.82 2293.45,2988.82 2292,3001.5C 2291.5,3198.83 2291.33,3396.17 2291.5,3593.5C 2483.5,3593.5 2675.5,3593.5 2867.5,3593.5C 2867.67,3398.5 2867.5,3203.5 2867,3008.5C 2864.99,2972.3 2847.83,2946.13 2815.5,2930C 2791.44,2919.73 2766.44,2912.73 2740.5,2909C 2714.26,2905.39 2687.93,2902.89 2661.5,2901.5C 2661.5,2891.83 2661.5,2882.17 2661.5,2872.5C 2928.83,2872.5 3196.17,2872.5 3463.5,2872.5C 3463.5,2882.17 3463.5,2891.83 3463.5,2901.5C 3427,2902.74 3390.67,2905.9 3354.5,2911C 3332.45,2914.51 3311.11,2920.51 3290.5,2929C 3266.22,2939.61 3251.06,2957.77 3245,2983.5C 3243.2,2992.75 3242.03,3002.08 3241.5,3011.5C 3242,3442.18 3242.84,3872.84 3244,4303.5C 3248.21,4329.04 3261.71,4347.87 3284.5,4360C 3306.74,4370.39 3330.07,4377.06 3354.5,4380C 3390.32,4385.08 3426.32,4388.08 3462.5,4389C 3463.49,4399.42 3463.82,4409.92 3463.5,4420.5C 3196.17,4420.5 2928.83,4420.5 2661.5,4420.5C 2661.18,4409.92 2661.51,4399.42 2662.5,4389C 2703.74,4387.9 2744.41,4382.57 2784.5,4373C 2808.69,4367.33 2829.52,4355.83 2847,4338.5C 2859.16,4323.37 2865.83,4306.03 2867,4286.5C 2867.5,4070.5 2867.67,3854.5 2867.5,3638.5C 2675.5,3638.5 2483.5,3638.5 2291.5,3638.5C 2291.33,3854.83 2291.5,4071.17 2292,4287.5C 2293.7,4318.1 2307.54,4341.27 2333.5,4357C 2357.74,4369.48 2383.41,4377.48 2410.5,4381C 2439.01,4385.32 2467.68,4387.99 2496.5,4389C 2497.49,4399.42 2497.82,4409.92 2497.5,4420.5C 2230.17,4420.5 1962.83,4420.5 1695.5,4420.5C 1695.18,4409.92 1695.51,4399.42 1696.5,4389C 1742.97,4388.22 1788.97,4383.22 1834.5,4374C 1856.62,4369.27 1876.29,4359.77 1893.5,4345.5C 1907.48,4331.09 1914.98,4313.76 1916,4293.5C 1916.17,4078.17 1916.33,3862.83 1916.5,3647.5C 1916.33,3432.17 1916.17,3216.83 1916,3001.5C 1912.98,2962.3 1892.81,2936.47 1855.5,2924C 1834.06,2916.58 1812.06,2911.58 1789.5,2909C 1758.27,2905.17 1726.93,2902.67 1695.5,2901.5C 1695.5,2891.83 1695.5,2882.17 1695.5,2872.5 Z"/></g>
<g><path style="opacity:0.995" fill="#000000" d="M 3591.5,2872.5 C 4044.17,2872.5 4496.83,2872.5 4949.5,2872.5C 4951.21,3014.4 4953.21,3156.24 4955.5,3298C 4955.89,3338.97 4955.89,3380.13 4955.5,3421.5C 4943.36,3423.87 4931.2,3424.87 4919,3424.5C 4886.42,3355.34 4852.75,3286.68 4818,3218.5C 4792.02,3168.51 4763.02,3120.51 4731,3074.5C 4703.21,3035.04 4669.71,3001.21 4630.5,2973C 4583.89,2941.71 4532.55,2922.71 4476.5,2916C 4454.92,2913.24 4433.25,2911.58 4411.5,2911C 4337.17,2910.5 4262.83,2910.33 4188.5,2910.5C 4188.5,3139.83 4188.5,3369.17 4188.5,3598.5C 4223.18,3598.73 4257.84,3598.23 4292.5,3597C 4398.96,3592.55 4480.46,3545.72 4537,3456.5C 4566.06,3407.35 4587.72,3355.02 4602,3299.5C 4612.08,3298.51 4622.25,3298.18 4632.5,3298.5C 4632.5,3512.5 4632.5,3726.5 4632.5,3940.5C 4622.17,3940.5 4611.83,3940.5 4601.5,3940.5C 4587.93,3886.36 4567.43,3835.03 4540,3786.5C 4484.53,3692.83 4402.03,3643.33 4292.5,3638C 4257.84,3636.77 4223.18,3636.27 4188.5,3636.5C 4188.5,3884.17 4188.5,4131.83 4188.5,4379.5C 4266.17,4379.67 4343.83,4379.5 4421.5,4379C 4476.66,4377.41 4530.66,4368.74 4583.5,4353C 4646.05,4332.32 4699.88,4298.16 4745,4250.5C 4782.23,4209.37 4814.56,4164.7 4842,4116.5C 4868.15,4070.54 4892.48,4023.54 4915,3975.5C 4936.11,3929.62 4956.94,3883.62 4977.5,3837.5C 4989.89,3837.25 5002.22,3838.25 5014.5,3840.5C 5010.38,4033.81 5006.71,4227.14 5003.5,4420.5C 4532.83,4420.5 4062.17,4420.5 3591.5,4420.5C 3591.18,4409.92 3591.51,4399.42 3592.5,4389C 3635.5,4387.85 3678.17,4383.52 3720.5,4376C 3744.22,4371.63 3765.88,4362.63 3785.5,4349C 3802.55,4333.73 3811.72,4314.56 3813,4291.5C 3813.17,4077 3813.33,3862.5 3813.5,3648C 3813.33,3433.5 3813.17,3219 3813,3004.5C 3810.2,2963.7 3789.37,2936.86 3750.5,2924C 3716.69,2913.14 3682.02,2906.81 3646.5,2905C 3628.18,2903.47 3609.85,2902.3 3591.5,2901.5C 3591.5,2891.83 3591.5,2882.17 3591.5,2872.5 Z"/></g>
<g><path style="opacity:0.995" fill="#000000" d="M 5208.5,2872.5 C 5434.83,2872.17 5661.17,2872.5 5887.5,2873.5C 6033.64,3238.58 6179.97,3603.58 6326.5,3968.5C 6329.78,3969.66 6333.12,3969.82 6336.5,3969C 6467.6,3603.87 6598.6,3238.7 6729.5,2873.5C 6931.5,2872.5 7133.5,2872.17 7335.5,2872.5C 7335.5,2882.17 7335.5,2891.83 7335.5,2901.5C 7299.68,2902.86 7264.01,2906.02 7228.5,2911C 7207.91,2914.15 7187.91,2919.48 7168.5,2927C 7131.78,2942.57 7113.12,2970.4 7112.5,3010.5C 7113,3440.84 7113.84,3871.17 7115,4301.5C 7119.23,4326.71 7132.4,4345.54 7154.5,4358C 7174.11,4367.74 7194.78,4374.41 7216.5,4378C 7255.59,4384.25 7294.92,4387.92 7334.5,4389C 7335.49,4399.42 7335.82,4409.92 7335.5,4420.5C 7069.17,4420.5 6802.83,4420.5 6536.5,4420.5C 6536.18,4409.92 6536.51,4399.42 6537.5,4389C 6574.53,4387.66 6611.2,4383.33 6647.5,4376C 6672.1,4370.81 6694.43,4360.81 6714.5,4346C 6729.82,4332.2 6738.99,4315.03 6742,4294.5C 6743.5,3872.52 6744,3450.52 6743.5,3028.5C 6739.89,3028.21 6736.39,3028.54 6733,3029.5C 6566,3492.83 6399,3956.17 6232,4419.5C 6197.23,4420.83 6162.4,4420.83 6127.5,4419.5C 5936.17,3956.17 5744.83,3492.83 5553.5,3029.5C 5549.22,3028.51 5544.88,3028.17 5540.5,3028.5C 5540.33,3374.83 5540.5,3721.17 5541,4067.5C 5541.45,4119.18 5549.78,4169.51 5566,4218.5C 5588.84,4281.01 5630.67,4325.84 5691.5,4353C 5737.65,4372.2 5785.65,4384.2 5835.5,4389C 5836.49,4399.42 5836.82,4409.92 5836.5,4420.5C 5627.17,4420.5 5417.83,4420.5 5208.5,4420.5C 5208.18,4409.92 5208.51,4399.42 5209.5,4389C 5262.32,4384.3 5312.32,4369.96 5359.5,4346C 5406.86,4318.63 5439.7,4279.13 5458,4227.5C 5473.02,4182.74 5481.35,4136.74 5483,4089.5C 5484.15,3925.01 5484.65,3760.51 5484.5,3596C 5484.33,3440.5 5484.17,3285 5484,3129.5C 5480.95,3031.5 5434.45,2963.66 5344.5,2926C 5300.58,2910.18 5255.24,2902.02 5208.5,2901.5C 5208.5,2891.83 5208.5,2882.17 5208.5,2872.5 Z"/></g>
</svg>