<svg xmlns="http://www.w3.org/2000/svg" xmlns:xlink="http://www.w3.org/1999/xlink" version="1.1" style="shape-rendering:geometricPrecision; text-rendering:geometricPrecision; image-rendering:optimizeQuality; fill-rule:evenodd; clip-rule:evenodd" viewBox="40.5 1779.5 4903.06 1296.84">
<g><path style="opacity:0.995" fill="#000000" d="M 369.5,1779.5 C 543.167,1779.5 716.833,1779.5 890.5,1779.5C 1002.78,2205.45 1115.45,2631.28 1228.5,3057C 1154.83,3057.5 1081.17,3057.67 1007.5,3057.5C 978.971,2948.38 949.971,2839.38 920.5,2730.5C 724.833,2729.17 529.167,2729.17 333.5,2730.5C 305.695,2839.39 278.362,2948.39 251.5,3057.5C 181.167,3057.5 110.833,3057.5 40.5,3057.5C 149.766,2631.37 259.433,2205.37 369.5,1779.5 Z M 525.5,1980.5 C 592.071,1980.17 658.571,1980.5 725,1981.5C 773.151,2163.44 820.984,2345.44 868.5,2527.5C 708.499,2527.83 548.499,2527.5 388.5,2526.5C 434.174,2344.47 479.841,2162.47 525.5,1980.5 Z"/></g>
<g><path style="opacity:0.996" fill="#000000" d="M 1364.5,1779.5 C 1428.5,1779.5 1492.5,1779.5 1556.5,1779.5C 1556.5,1937.5 1556.5,2095.5 1556.5,2253.5C 1559.57,2253.82 1562.57,2253.48 1565.5,2252.5C 1595.58,2207.93 1634.58,2173.43 1682.5,2149C 1731.37,2122.27 1783.7,2108.6 1839.5,2108C 1899.55,2105.39 1957.88,2114.05 2014.5,2134C 2099,2167.83 2158.17,2227 2192,2311.5C 2213.57,2371.58 2223.9,2433.58 2223,2497.5C 2223.5,2684.17 2223.67,2870.83 2223.5,3057.5C 2159.17,3057.5 2094.83,3057.5 2030.5,3057.5C 2030.67,2871.5 2030.5,2685.5 2030,2499.5C 2029.35,2461.9 2022.35,2425.57 2009,2390.5C 1985.11,2336.63 1944.28,2303.13 1886.5,2290C 1836.95,2278.14 1787.62,2278.8 1738.5,2292C 1638.51,2326.01 1579.34,2395.18 1561,2499.5C 1558.94,2513.1 1557.61,2526.76 1557,2540.5C 1556.5,2712.83 1556.33,2885.17 1556.5,3057.5C 1492.5,3057.5 1428.5,3057.5 1364.5,3057.5C 1364.5,2631.5 1364.5,2205.5 1364.5,1779.5 Z"/></g>
<g><path style="opacity:0.994" fill="#000000" d="M 2841.5,2107.5 C 3003.03,2108.19 3133.53,2171.52 3233,2297.5C 3291.33,2377.81 3322.66,2467.81 3327,2567.5C 3327.5,2597.16 3327.67,2626.83 3327.5,2656.5C 3075.17,2656.5 2822.83,2656.5 2570.5,2656.5C 2582.39,2729.15 2615.73,2789.65 2670.5,2838C 2736.4,2889.48 2811.07,2910.15 2894.5,2900C 2970.96,2893.01 3036.13,2862.51 3090,2808.5C 3099.44,2797.79 3108.27,2786.62 3116.5,2775C 3183.83,2774.33 3251.17,2774.33 3318.5,2775C 3274.74,2880.09 3203.41,2960.76 3104.5,3017C 3045.78,3047.57 2983.45,3066.24 2917.5,3073C 2754.81,3090.23 2616.65,3040.73 2503,2924.5C 2412.49,2821.64 2370.82,2701.31 2378,2563.5C 2386.02,2425.97 2441.19,2311.8 2543.5,2221C 2629.71,2149.42 2729.05,2111.59 2841.5,2107.5 Z M 2851.5,2281.5 C 2936.68,2281.59 3008.51,2312.26 3067,2373.5C 3096.56,2410.62 3116.06,2452.62 3125.5,2499.5C 2943.5,2500.5 2761.5,2500.83 2579.5,2500.5C 2600.56,2405.61 2655.89,2339.45 2745.5,2302C 2779.79,2289.01 2815.12,2282.18 2851.5,2281.5 Z"/></g>
<g><path style="opacity:0.993" fill="#000000" d="M 3949.5,2107.5 C 3984.79,2106.93 4019.79,2109.76 4054.5,2116C 4121.02,2132 4177.52,2164.83 4224,2214.5C 4241.23,2234.62 4255.73,2256.62 4267.5,2280.5C 4270.94,2282.01 4274.11,2281.67 4277,2279.5C 4289.01,2258.15 4303.35,2238.49 4320,2220.5C 4405.38,2135.25 4508.55,2098.08 4629.5,2109C 4717.9,2113.63 4792.4,2147.79 4853,2211.5C 4887.71,2251.25 4911.71,2296.91 4925,2348.5C 4936.91,2395.75 4942.91,2443.75 4943,2492.5C 4943.5,2680.83 4943.67,2869.17 4943.5,3057.5C 4879.17,3057.5 4814.83,3057.5 4750.5,3057.5C 4750.67,2867.83 4750.5,2678.17 4750,2488.5C 4749.49,2444.14 4738.83,2402.48 4718,2363.5C 4688.39,2318.3 4646.56,2292.13 4592.5,2285C 4495.83,2272.27 4419,2305.1 4362,2383.5C 4333.04,2426.71 4317.04,2474.38 4314,2526.5C 4313.5,2703.5 4313.33,2880.5 4313.5,3057.5C 4249.17,3057.5 4184.83,3057.5 4120.5,3057.5C 4120.67,2866.5 4120.5,2675.5 4120,2484.5C 4119.11,2440.7 4108.11,2399.7 4087,2361.5C 4055.59,2315.35 4011.76,2289.52 3955.5,2284C 3857.71,2274.48 3781.54,2310.32 3727,2391.5C 3700.81,2433.73 3686.48,2479.73 3684,2529.5C 3683.5,2705.5 3683.33,2881.5 3683.5,3057.5C 3619.17,3057.5 3554.83,3057.5 3490.5,3057.5C 3490.5,2747.17 3490.5,2436.83 3490.5,2126.5C 3554.83,2126.5 3619.17,2126.5 3683.5,2126.5C 3683.5,2168.83 3683.5,2211.17 3683.5,2253.5C 3686.57,2253.82 3689.57,2253.48 3692.5,2252.5C 3736.39,2183.51 3798.06,2138.34 3877.5,2117C 3901.4,2111.94 3925.4,2108.77 3949.5,2107.5 Z"/></g>
</svg>