<svg xmlns="http://www.w3.org/2000/svg" xmlns:xlink="http://www.w3.org/1999/xlink" version="1.1" style="shape-rendering:geometricPrecision; text-rendering:geometricPrecision; image-rendering:optimizeQuality; fill-rule:evenodd; clip-rule:evenodd" viewBox="54.5 2686.25 7387.06 1953.93">
<g><path style="opacity:0.997" fill="#0000ff" d="M 549.5,2686.5 C 811.541,2685.83 1073.37,2686.5 1335,2688.5C 1504.35,3329.55 1673.85,3970.55 1843.5,4611.5C 1732.84,4612.5 1622.17,4612.83 1511.5,4612.5C 1468.25,4447.74 1424.58,4283.07 1380.5,4118.5C 1085.5,4117.17 790.5,4117.17 495.5,4118.5C 453.851,4283.1 412.518,4447.76 371.5,4612.5C 265.833,4612.5 160.167,4612.5 54.5,4612.5C 219.186,3970.42 384.186,3328.42 549.5,2686.5 Z M 784.5,2989.5 C 885.07,2989.17 985.57,2989.5 1086,2990.5C 1158.12,3265.14 1230.62,3539.64 1303.5,3814C 1061.83,3814.5 820.167,3814.67 578.5,3814.5C 647.01,3539.46 715.677,3264.46 784.5,2989.5 Z"/></g>
<g><path style="opacity:0.996" fill="#0000ff" d="M 2048.5,2686.5 C 2145.17,2686.5 2241.83,2686.5 2338.5,2686.5C 2338.5,2924.83 2338.5,3163.17 2338.5,3401.5C 2342.85,3401.67 2347.18,3401.5 2351.5,3401C 2395.26,3335.56 2451.93,3284.56 2521.5,3248C 2556.62,3228.63 2593.29,3212.96 2631.5,3201C 2675.1,3189.63 2719.44,3183.29 2764.5,3182C 2834.84,3179.23 2904.17,3186.23 2972.5,3203C 3097.19,3235.76 3193.35,3306.6 3261,3415.5C 3298.57,3482.87 3322.57,3554.87 3333,3631.5C 3337.71,3665.01 3340.71,3698.68 3342,3732.5C 3342.5,4025.83 3342.67,4319.17 3342.5,4612.5C 3246.17,4612.5 3149.83,4612.5 3053.5,4612.5C 3053.67,4341.17 3053.5,4069.83 3053,3798.5C 3053.43,3747.71 3047.43,3697.71 3035,3648.5C 3007.54,3546.71 2942.71,3482.87 2840.5,3457C 2761.78,3437.87 2683.44,3439.2 2605.5,3461C 2476.14,3505.7 2392.64,3593.86 2355,3725.5C 2345.18,3763.54 2339.85,3802.21 2339,3841.5C 2338.5,4098.5 2338.33,4355.5 2338.5,4612.5C 2241.83,4612.5 2145.17,4612.5 2048.5,4612.5C 2048.5,3970.5 2048.5,3328.5 2048.5,2686.5 Z"/></g>
<g><path style="opacity:0.996" fill="#0000ff" d="M 4267.5,3181.5 C 4458.98,3177.81 4626.32,3238.64 4769.5,3364C 4902.3,3486.08 4979.8,3637.25 5002,3817.5C 5004.64,3841.77 5006.31,3866.1 5007,3890.5C 5007.5,3929.5 5007.67,3968.5 5007.5,4007.5C 4626.83,4007.17 4246.17,4007.5 3865.5,4008.5C 3879.25,4083.98 3908.42,4152.65 3953,4214.5C 4034.35,4316.92 4140.85,4371.42 4272.5,4378C 4377.75,4383.94 4475.41,4359.94 4565.5,4306C 4615.13,4274.87 4656.47,4235.03 4689.5,4186.5C 4790.5,4185.5 4891.5,4185.17 4992.5,4185.5C 4950.59,4292.88 4886.26,4384.38 4799.5,4460C 4716.78,4534.21 4621.11,4585.21 4512.5,4613C 4392.82,4643.74 4272.16,4648.41 4150.5,4627C 3985.09,4591.4 3847.92,4509.57 3739,4381.5C 3625.42,4237.77 3571.09,4073.77 3576,3889.5C 3580.96,3709.72 3641.96,3552.38 3759,3417.5C 3882.9,3283.51 4036.07,3206.01 4218.5,3185C 4234.99,3183.78 4251.32,3182.62 4267.5,3181.5 Z M 4273.5,3443.5 C 4395.23,3438.68 4501.23,3476.51 4591.5,3557C 4633.77,3598 4664.6,3646.5 4684,3702.5C 4692.06,3725.41 4698.56,3748.74 4703.5,3772.5C 4428.83,3773.5 4154.17,3773.83 3879.5,3773.5C 3911.67,3628.18 3996.67,3527.68 4134.5,3472C 4179.59,3455.75 4225.92,3446.25 4273.5,3443.5 Z"/></g>
<g><path style="opacity:0.996" fill="#0000ff" d="M 5942.5,3181.5 C 5998.04,3179.66 6053.04,3184.16 6107.5,3195C 6151.69,3204.93 6193.36,3221.26 6232.5,3244C 6317.35,3289.35 6381.02,3355.18 6423.5,3441.5C 6428.17,3442.83 6432.83,3442.83 6437.5,3441.5C 6461.12,3398.84 6491.12,3361.01 6527.5,3328C 6592.81,3268.66 6668.14,3226.32 6753.5,3201C 6816.89,3185.3 6881.22,3178.96 6946.5,3182C 7033.04,3183.97 7114.37,3205.3 7190.5,3246C 7292.35,3304.87 7362.52,3390.04 7401,3501.5C 7425.86,3576.81 7439.19,3654.15 7441,3733.5C 7441.5,4026.5 7441.67,4319.5 7441.5,4612.5C 7344.83,4612.5 7248.17,4612.5 7151.5,4612.5C 7151.67,4325.17 7151.5,4037.83 7151,3750.5C 7149.45,3696.76 7138.45,3645.1 7118,3595.5C 7084.15,3523.32 7028.65,3476.82 6951.5,3456C 6879.44,3437.46 6808.1,3439.8 6737.5,3463C 6652.57,3495.39 6588.4,3551.56 6545,3631.5C 6511.57,3692.88 6494.24,3758.54 6493,3828.5C 6492.5,4089.83 6492.33,4351.17 6492.5,4612.5C 6395.83,4612.5 6299.17,4612.5 6202.5,4612.5C 6202.67,4325.17 6202.5,4037.83 6202,3750.5C 6200.33,3696.8 6189.33,3645.13 6169,3595.5C 6135.65,3524.49 6081.15,3478.32 6005.5,3457C 5923.74,3435.11 5843.74,3440.11 5765.5,3472C 5692.29,3506.21 5636.12,3558.71 5597,3629.5C 5563.1,3691.12 5545.43,3757.12 5544,3827.5C 5543.5,4089.17 5543.33,4350.83 5543.5,4612.5C 5446.83,4612.5 5350.17,4612.5 5253.5,4612.5C 5253.5,4144.83 5253.5,3677.17 5253.5,3209.5C 5350.17,3209.5 5446.83,3209.5 5543.5,3209.5C 5543.5,3273.5 5543.5,3337.5 5543.5,3401.5C 5548.1,3401.8 5552.6,3401.47 5557,3400.5C 5597.61,3334.28 5651.77,3282.11 5719.5,3244C 5750.51,3226.66 5782.84,3212.33 5816.5,3201C 5857.95,3190.04 5899.95,3183.54 5942.5,3181.5 Z"/></g>
</svg>