<svg xmlns="http://www.w3.org/2000/svg" xmlns:xlink="http://www.w3.org/1999/xlink" version="1.1" style="shape-rendering:geometricPrecision; text-rendering:geometricPrecision; image-rendering:optimizeQuality; fill-rule:evenodd; clip-rule:evenodd" viewBox="41.49 1802.5 4909.07 1393.72">
<g><path style="opacity:0.243" fill="#002400" d="M 1466.5,2365.5 C 1465.5,2178.33 1465.17,1991 1465.5,1803.5C 1372.17,1803.5 1278.83,1803.5 1185.5,1803.5C 1185.5,2261.17 1185.5,2718.83 1185.5,3176.5C 1278.83,3176.5 1372.17,3176.5 1465.5,3176.5C 1465.17,2998.67 1465.5,2821 1466.5,2643.5C 1466.5,2821.5 1466.5,2999.5 1466.5,3177.5C 1372.5,3177.5 1278.5,3177.5 1184.5,3177.5C 1184.5,2719.17 1184.5,2260.83 1184.5,1802.5C 1278.5,1802.5 1372.5,1802.5 1466.5,1802.5C 1466.5,1990.17 1466.5,2177.83 1466.5,2365.5 Z"/></g>
<g><path style="opacity:1" fill="#002500" d="M 1466.5,2365.5 C 1472.09,2365.81 1477.59,2365.47 1483,2364.5C 1539.88,2250.92 1631.72,2186.42 1758.5,2171C 1824.43,2163.14 1888.43,2170.81 1950.5,2194C 2021.97,2225.47 2073.47,2276.97 2105,2348.5C 2127.44,2401.59 2140.77,2456.92 2145,2514.5C 2146.94,2537.13 2147.77,2559.79 2147.5,2582.5C 2146.5,2780.33 2146.17,2978.33 2146.5,3176.5C 2052.83,3176.5 1959.17,3176.5 1865.5,3176.5C 1865.83,2987.33 1865.5,2798.33 1864.5,2609.5C 1862.71,2448.8 1782.71,2381.96 1624.5,2409C 1559.62,2427.22 1514.12,2467.38 1488,2529.5C 1473.83,2566.16 1466.67,2604.16 1466.5,2643.5C 1465.5,2821 1465.17,2998.67 1465.5,3176.5C 1372.17,3176.5 1278.83,3176.5 1185.5,3176.5C 1185.5,2718.83 1185.5,2261.17 1185.5,1803.5C 1278.83,1803.5 1372.17,1803.5 1465.5,1803.5C 1465.17,1991 1465.5,2178.33 1466.5,2365.5 Z"/></g>
<g><path style="opacity:0.999" fill="#002500" d="M 358.5,2506.5 C 266.288,2507.16 174.288,2506.49 82.5,2504.5C 95.8837,2375.15 160.217,2280.98 275.5,2222C 345.053,2188.95 418.386,2171.28 495.5,2169C 554.103,2166.33 612.103,2171 669.5,2183C 842.872,2223.7 935.372,2332.87 947,2510.5C 947.333,2650.83 947.667,2791.17 948,2931.5C 948.46,2944.21 952.127,2955.88 959,2966.5C 968.799,2977.98 981.299,2983.31 996.5,2982.5C 1006.56,2981.99 1016.56,2980.99 1026.5,2979.5C 1026.67,3044.83 1026.5,3110.17 1026,3175.5C 959.237,3192.35 891.737,3196.18 823.5,3187C 734.181,3171.18 686.514,3118.01 680.5,3027.5C 675.833,3027.5 671.167,3027.5 666.5,3027.5C 652.316,3068.37 627.983,3101.87 593.5,3128C 555.349,3155.9 513.016,3174.9 466.5,3185C 394.332,3200.49 322.332,3199.49 250.5,3182C 177.002,3163.38 120.169,3122.21 80,3058.5C 53.8578,3010.93 41.0245,2959.93 41.5,2905.5C 43.9139,2769.75 106.914,2674.58 230.5,2620C 296.277,2593.87 364.611,2581.2 435.5,2582C 512.166,2581.5 588.833,2581.33 665.5,2581.5C 665.92,2553.47 665.42,2525.47 664,2497.5C 654.507,2438.68 620.673,2402.84 562.5,2390C 521.434,2381.92 481.101,2384.59 441.5,2398C 392.179,2417.5 364.513,2453.67 358.5,2506.5 Z M 474.5,2752.5 C 538.167,2752.5 601.833,2752.5 665.5,2752.5C 668.901,2791.17 664.401,2828.83 652,2865.5C 626.123,2927.72 579.957,2965.22 513.5,2978C 477.581,2984.85 441.914,2983.85 406.5,2975C 348.612,2955.77 322.445,2915.6 328,2854.5C 334.19,2805.3 361.356,2774.47 409.5,2762C 430.98,2756.53 452.646,2753.36 474.5,2752.5 Z"/></g>
<g><path style="opacity:0.999" fill="#002500" d="M 2764.5,2168.5 C 2823.6,2166.14 2881.93,2171.64 2939.5,2185C 3049.11,2212.69 3133.94,2274.19 3194,2369.5C 3230.77,2432.48 3251.43,2500.48 3256,2573.5C 3259.94,2631.92 3256.77,2689.92 3246.5,2747.5C 3026.17,2747.5 2805.83,2747.5 2585.5,2747.5C 2583.67,2796.53 2593.83,2842.86 2616,2886.5C 2645.67,2936.79 2689.5,2966.96 2747.5,2977C 2805.34,2986.9 2860.34,2978.56 2912.5,2952C 2937.62,2937.21 2957.79,2917.38 2973,2892.5C 2977.86,2882.94 2982.03,2873.11 2985.5,2863C 3078.5,2862.5 3171.5,2862.33 3264.5,2862.5C 3249.47,2954.61 3205.8,3029.77 3133.5,3088C 3057.38,3148.02 2970.72,3182.69 2873.5,3192C 2796.31,3200.81 2719.98,3195.81 2644.5,3177C 2508.88,3137.7 2411.04,3054.2 2351,2926.5C 2325.65,2867.75 2310.65,2806.41 2306,2742.5C 2298.85,2658.66 2306.85,2576.33 2330,2495.5C 2371.9,2365.94 2454.06,2271.44 2576.5,2212C 2636.56,2185.82 2699.22,2171.32 2764.5,2168.5 Z M 2771.5,2381.5 C 2814.15,2379.33 2854.49,2387.83 2892.5,2407C 2936.22,2433.43 2962.72,2471.93 2972,2522.5C 2974.45,2535.39 2975.62,2548.39 2975.5,2561.5C 2846.83,2561.5 2718.17,2561.5 2589.5,2561.5C 2591.01,2509.33 2610.34,2465.16 2647.5,2429C 2683.37,2399.1 2724.7,2383.26 2771.5,2381.5 Z"/></g>
<g><path style="opacity:0.999" fill="#002500" d="M 4332.5,2624.5 C 4331.5,2808.33 4331.17,2992.33 4331.5,3176.5C 4237.5,3176.5 4143.5,3176.5 4049.5,3176.5C 4049.83,2987 4049.5,2797.67 4048.5,2608.5C 4049.77,2566.55 4043.27,2525.89 4029,2486.5C 4007.91,2436.69 3970.41,2408.86 3916.5,2403C 3817.39,2397.45 3753.22,2441.95 3724,2536.5C 3718.28,2558.14 3714.95,2580.14 3714,2602.5C 3713.5,2793.83 3713.33,2985.17 3713.5,3176.5C 3619.83,3176.5 3526.17,3176.5 3432.5,3176.5C 3432.5,2846.83 3432.5,2517.17 3432.5,2187.5C 3514.33,2186.5 3596.33,2186.17 3678.5,2186.5C 3689.63,2247.48 3700.63,2308.48 3711.5,2369.5C 3717.76,2369.81 3723.92,2369.48 3730,2368.5C 3750.63,2317.72 3780.79,2273.56 3820.5,2236C 3875.84,2189.33 3940.01,2166.83 4013,2168.5C 4144.21,2168.8 4235.88,2228.8 4288,2348.5C 4291.41,2355.98 4294.24,2363.65 4296.5,2371.5C 4303.42,2371.81 4310.26,2371.48 4317,2370.5C 4369.92,2244.64 4464.75,2177.47 4601.5,2169C 4770.83,2162.72 4879.67,2240.55 4928,2402.5C 4940.92,2449.64 4948.26,2497.64 4950,2546.5C 4950.5,2756.83 4950.67,2967.17 4950.5,3177.5C 4856.17,3177.5 4761.83,3177.5 4667.5,3177.5C 4667.67,2983.17 4667.5,2788.83 4667,2594.5C 4666.63,2554.98 4658.96,2516.98 4644,2480.5C 4617.75,2426.68 4574.41,2400.68 4514,2402.5C 4428.54,2403.97 4372.54,2445.3 4346,2526.5C 4336.5,2558.47 4332,2591.13 4332.5,2624.5 Z"/></g>
<g><path style="opacity:0.256" fill="#002200" d="M 82.5,2504.5 C 174.288,2506.49 266.288,2507.16 358.5,2506.5C 266.668,2507.5 174.668,2507.83 82.5,2507.5C 82.5,2506.5 82.5,2505.5 82.5,2504.5 Z"/></g>
<g><path style="opacity:0.721" fill="#002400" d="M 2147.5,2582.5 C 2147.5,2780.83 2147.5,2979.17 2147.5,3177.5C 2053.17,3177.5 1958.83,3177.5 1864.5,3177.5C 1864.5,2988.17 1864.5,2798.83 1864.5,2609.5C 1865.5,2798.33 1865.83,2987.33 1865.5,3176.5C 1959.17,3176.5 2052.83,3176.5 2146.5,3176.5C 2146.17,2978.33 2146.5,2780.33 2147.5,2582.5 Z"/></g>
<g><path style="opacity:0.317" fill="#002200" d="M 4048.5,2608.5 C 4049.5,2797.67 4049.83,2987 4049.5,3176.5C 4143.5,3176.5 4237.5,3176.5 4331.5,3176.5C 4331.17,2992.33 4331.5,2808.33 4332.5,2624.5C 4332.5,2808.83 4332.5,2993.17 4332.5,3177.5C 4237.83,3177.5 4143.17,3177.5 4048.5,3177.5C 4048.5,2987.83 4048.5,2798.17 4048.5,2608.5 Z"/></g>
<g><path style="opacity:0.548" fill="#011800" d="M 3432.5,2187.5 C 3432.5,2517.17 3432.5,2846.83 3432.5,3176.5C 3526.17,3176.5 3619.83,3176.5 3713.5,3176.5C 3619.67,3177.5 3525.67,3177.83 3431.5,3177.5C 3431.17,2847.33 3431.5,2517.33 3432.5,2187.5 Z"/></g>
</svg>