<svg xmlns="http://www.w3.org/2000/svg" xmlns:xlink="http://www.w3.org/1999/xlink" version="1.1" style="shape-rendering:geometricPrecision; text-rendering:geometricPrecision; image-rendering:optimizeQuality; fill-rule:evenodd; clip-rule:evenodd" viewBox="50.5 1815.5 4851.06 1245.71">
<g><path style="opacity:0.997" fill="#000000" d="M 372.5,1815.5 C 555.833,1815.5 739.167,1815.5 922.5,1815.5C 1029.52,2221.57 1136.85,2627.57 1244.5,3033.5C 1154.17,3034.83 1063.83,3034.83 973.5,3033.5C 950.029,2943.95 927.029,2854.28 904.5,2764.5C 733.5,2764.33 562.5,2764.5 391.5,2765C 368.25,2854.5 344.917,2944 321.5,3033.5C 231.167,3034.83 140.833,3034.83 50.5,3033.5C 158.148,2627.57 265.482,2221.57 372.5,1815.5 Z M 573.5,2059.5 C 622.833,2059.5 672.167,2059.5 721.5,2059.5C 761.676,2213.2 802.009,2366.87 842.5,2520.5C 712.5,2520.67 582.5,2520.5 452.5,2520C 493.378,2366.65 533.712,2213.15 573.5,2059.5 Z"/></g>
<g><path style="opacity:0.994" fill="#000000" d="M 1347.5,1815.5 C 1429.5,1815.5 1511.5,1815.5 1593.5,1815.5C 1593.5,1966.17 1593.5,2116.83 1593.5,2267.5C 1596.25,2267.81 1598.91,2267.48 1601.5,2266.5C 1622.13,2233.36 1648.47,2205.53 1680.5,2183C 1711.99,2161.25 1745.99,2144.25 1782.5,2132C 1824.88,2121.44 1867.88,2117.77 1911.5,2121C 1981.21,2123.46 2044.54,2144.46 2101.5,2184C 2160.93,2230.63 2198.76,2291.13 2215,2365.5C 2222.45,2398.42 2226.78,2431.75 2228,2465.5C 2228.5,2655.17 2228.67,2844.83 2228.5,3034.5C 2146.83,3034.5 2065.17,3034.5 1983.5,3034.5C 1983.67,2859.17 1983.5,2683.83 1983,2508.5C 1981.82,2470.08 1971.48,2434.41 1952,2401.5C 1923.57,2361.35 1884.73,2338.18 1835.5,2332C 1750.88,2322.41 1683.72,2351.91 1634,2420.5C 1610.9,2456.81 1597.56,2496.48 1594,2539.5C 1593.5,2704.5 1593.33,2869.5 1593.5,3034.5C 1511.5,3034.5 1429.5,3034.5 1347.5,3034.5C 1347.86,2626.91 1347.86,2220.58 1347.5,1815.5 Z"/></g>
<g><path style="opacity:0.996" fill="#000000" d="M 2806.5,2120.5 C 2914.4,2113.65 3013.73,2139.15 3104.5,2197C 3220.37,2278.04 3287.2,2389.21 3305,2530.5C 3308.1,2567.76 3309.27,2605.1 3308.5,2642.5C 3076.17,2642.17 2843.83,2642.5 2611.5,2643.5C 2623.88,2707.79 2654.88,2760.96 2704.5,2803C 2767.44,2850.33 2837.1,2863.33 2913.5,2842C 2949.61,2830.54 2981.45,2812.04 3009,2786.5C 3019.66,2774.17 3029.16,2761 3037.5,2747C 3124.84,2746.17 3212.17,2746.33 3299.5,2747.5C 3256.51,2876.33 3172.84,2968.16 3048.5,3023C 2966,3054.6 2880.66,3066.6 2792.5,3059C 2669.81,3047.44 2565.97,2997.61 2481,2909.5C 2387.18,2803.01 2347.18,2678.68 2361,2536.5C 2375.3,2418.39 2426.13,2319.55 2513.5,2240C 2597.61,2167.67 2695.28,2127.83 2806.5,2120.5 Z M 2826.5,2329.5 C 2897.07,2328.22 2955.91,2353.55 3003,2405.5C 3024.65,2431.47 3038.82,2461.14 3045.5,2494.5C 2903.83,2494.67 2762.17,2494.5 2620.5,2494C 2639,2436.84 2673.33,2391.84 2723.5,2359C 2755.58,2340.9 2789.91,2331.07 2826.5,2329.5 Z"/></g>
<g><path style="opacity:0.995" fill="#000000" d="M 3942.5,2120.5 C 4030.88,2112.75 4110.88,2134.59 4182.5,2186C 4218.01,2212.33 4245.68,2245.17 4265.5,2284.5C 4268.37,2285.78 4271.21,2285.78 4274,2284.5C 4302.4,2231.44 4342.9,2190.27 4395.5,2161C 4437.71,2136.03 4483.38,2122.7 4532.5,2121C 4591.5,2116.62 4648.83,2124.29 4704.5,2144C 4797.91,2182.43 4857.75,2250.6 4884,2348.5C 4893.96,2386.19 4899.62,2424.53 4901,2463.5C 4901.5,2653.83 4901.67,2844.17 4901.5,3034.5C 4820.17,3034.5 4738.83,3034.5 4657.5,3034.5C 4657.67,2859.83 4657.5,2685.17 4657,2510.5C 4654.17,2378.65 4587.33,2319.49 4456.5,2333C 4428.27,2339.12 4402.94,2351.12 4380.5,2369C 4336.33,2405.83 4310.83,2453 4304,2510.5C 4302.31,2525.68 4301.14,2540.85 4300.5,2556C 4301.5,2715.43 4301.83,2874.93 4301.5,3034.5C 4219.5,3034.5 4137.5,3034.5 4055.5,3034.5C 4055.67,2854.17 4055.5,2673.83 4055,2493.5C 4053.82,2457.3 4044.15,2423.63 4026,2392.5C 3998.74,2355.28 3961.91,2334.78 3915.5,2331C 3850.3,2324.28 3796.13,2345.45 3753,2394.5C 3720.34,2434.46 3703,2480.46 3701,2532.5C 3700.5,2699.83 3700.33,2867.17 3700.5,3034.5C 3618.83,3034.5 3537.17,3034.5 3455.5,3034.5C 3455.5,2738.17 3455.5,2441.83 3455.5,2145.5C 3537.17,2145.5 3618.83,2145.5 3700.5,2145.5C 3700.5,2186.17 3700.5,2226.83 3700.5,2267.5C 3703.25,2267.81 3705.91,2267.48 3708.5,2266.5C 3732.88,2223.62 3766.21,2189.46 3808.5,2164C 3837.03,2145.57 3868.03,2132.91 3901.5,2126C 3915.24,2123.63 3928.91,2121.8 3942.5,2120.5 Z"/></g>
</svg>