<svg xmlns="http://www.w3.org/2000/svg" xmlns:xlink="http://www.w3.org/1999/xlink" version="1.1" style="shape-rendering:geometricPrecision; text-rendering:geometricPrecision; image-rendering:optimizeQuality; fill-rule:evenodd; clip-rule:evenodd" viewBox="18.5 2922.38 7340.33 1875.16">
<g><path style="opacity:0.997" fill="#000000" d="M 527.5,2922.5 C 713.403,2922.17 899.236,2922.5 1085,2923.5C 1254.61,3535.76 1424.44,4147.93 1594.5,4760C 1475.17,4760.67 1355.83,4760.67 1236.5,4760C 1199.33,4623.98 1162.66,4487.82 1126.5,4351.5C 913.166,4351.33 699.833,4351.5 486.5,4352C 449.29,4488 412.624,4624.17 376.5,4760.5C 257.167,4760.5 137.833,4760.5 18.5,4760.5C 188.167,4147.83 357.833,3535.17 527.5,2922.5 Z M 790.5,3211.5 C 801.082,3211.18 811.582,3211.51 822,3212.5C 895.856,3486.59 970.023,3760.59 1044.5,4034.5C 885.835,4035.5 727.168,4035.83 568.5,4035.5C 642.294,3760.78 716.294,3486.12 790.5,3211.5 Z"/></g>
<g><path style="opacity:0.997" fill="#000000" d="M 1745.5,2922.5 C 1855.83,2922.5 1966.17,2922.5 2076.5,2922.5C 2076.5,3171.17 2076.5,3419.83 2076.5,3668.5C 2086.84,3668.67 2097.17,3668.5 2107.5,3668C 2153.92,3566.58 2230.26,3498.58 2336.5,3464C 2418.23,3439.3 2501.56,3431.64 2586.5,3441C 2753.06,3461.45 2877.23,3544.28 2959,3689.5C 2997.99,3765.8 3019.99,3846.8 3025,3932.5C 3025.88,3948.16 3026.55,3963.82 3027,3979.5C 3027.5,4239.83 3027.67,4500.17 3027.5,4760.5C 2916.83,4760.5 2806.17,4760.5 2695.5,4760.5C 2695.67,4506.83 2695.5,4253.17 2695,3999.5C 2694.04,3943.66 2679.71,3891.66 2652,3843.5C 2611.85,3784.97 2556.68,3748.8 2486.5,3735C 2414.9,3721.29 2344.23,3724.95 2274.5,3746C 2202.46,3771.71 2149.63,3818.87 2116,3887.5C 2090.88,3944.11 2077.88,4003.44 2077,4065.5C 2076.5,4297.17 2076.33,4528.83 2076.5,4760.5C 1966.17,4760.5 1855.83,4760.5 1745.5,4760.5C 1745.5,4147.83 1745.5,3535.17 1745.5,2922.5 Z"/></g>
<g><path style="opacity:0.996" fill="#000000" d="M 3845.5,3421.5 C 3955.71,3416.31 4061.37,3435.48 4162.5,3479C 4308.36,3548.19 4409.86,3658.36 4467,3809.5C 4497.38,3894.15 4512.71,3981.48 4513,4071.5C 4513.5,4116.83 4513.67,4162.17 4513.5,4207.5C 4197.5,4207.5 3881.5,4207.5 3565.5,4207.5C 3572.03,4297.37 3607.69,4373.2 3672.5,4435C 3735.08,4487.65 3807.58,4513.81 3890,4513.5C 3962.82,4514.42 4030.32,4496.26 4092.5,4459C 4146.08,4424.09 4186.91,4377.92 4215,4320.5C 4215.56,4319.98 4216.23,4319.64 4217,4319.5C 4306.4,4371.79 4395.9,4423.95 4485.5,4476C 4486.52,4477.05 4486.68,4478.22 4486,4479.5C 4450.69,4534.17 4409.52,4584.34 4362.5,4630C 4270.85,4713.65 4163.18,4765.65 4039.5,4786C 3945.76,4801.6 3852.09,4801.27 3758.5,4785C 3558.88,4743.96 3409.72,4634.79 3311,4457.5C 3260.87,4361 3232.87,4258.33 3227,4149.5C 3218.14,4021.65 3239.81,3899.32 3292,3782.5C 3379.17,3603.11 3519.67,3488.94 3713.5,3440C 3757.12,3430.05 3801.12,3423.88 3845.5,3421.5 Z M 3855.5,3705.5 C 3907.7,3702.65 3958.03,3710.81 4006.5,3730C 4072.49,3759.65 4119.65,3807.82 4148,3874.5C 4161.69,3906.92 4170.86,3940.59 4175.5,3975.5C 3973.17,3975.5 3770.83,3975.5 3568.5,3975.5C 3577.1,3909.48 3602.27,3850.81 3644,3799.5C 3685.33,3753.74 3736.5,3724.9 3797.5,3713C 3816.83,3709.33 3836.17,3706.83 3855.5,3705.5 Z"/></g>
<g><path style="opacity:0.996" fill="#000000" d="M 5396.5,3437.5 C 5477.61,3432.61 5553.61,3449.78 5624.5,3489C 5690.9,3529.23 5739.24,3585.07 5769.5,3656.5C 5781.83,3657.83 5794.17,3657.83 5806.5,3656.5C 5867.53,3528.43 5968.86,3456.6 6110.5,3441C 6207.3,3428.19 6298.97,3444.19 6385.5,3489C 6484.81,3545.33 6551.31,3628.16 6585,3737.5C 6599.05,3785.14 6606.38,3833.81 6607,3883.5C 6607.5,4175.83 6607.67,4468.17 6607.5,4760.5C 6496.83,4760.5 6386.17,4760.5 6275.5,4760.5C 6275.67,4474.17 6275.5,4187.83 6275,3901.5C 6267.84,3814.67 6222.34,3759.51 6138.5,3736C 6085.66,3722.88 6033,3723.54 5980.5,3738C 5901.39,3763.12 5852.89,3816.28 5835,3897.5C 5832.25,3910.72 5830.25,3924.05 5829,3937.5C 5828.5,4211.83 5828.33,4486.17 5828.5,4760.5C 5717.83,4760.5 5607.17,4760.5 5496.5,4760.5C 5496.67,4476.17 5496.5,4191.83 5496,3907.5C 5490.36,3814.2 5442.19,3756.37 5351.5,3734C 5300.83,3723.06 5250.5,3724.4 5200.5,3738C 5121.39,3763.11 5072.89,3816.28 5055,3897.5C 5052.13,3911.38 5050.13,3925.38 5049,3939.5C 5048.5,4213.17 5048.33,4486.83 5048.5,4760.5C 4937.83,4760.5 4827.17,4760.5 4716.5,4760.5C 4716.5,4326.17 4716.5,3891.83 4716.5,3457.5C 4825.17,3457.33 4933.83,3457.5 5042.5,3458C 5043.5,3522.76 5043.83,3587.6 5043.5,3652.5C 5055.52,3652.83 5067.52,3652.5 5079.5,3651.5C 5131.07,3534.46 5220.07,3464.96 5346.5,3443C 5363.27,3440.71 5379.94,3438.87 5396.5,3437.5 Z"/></g>
<g><path style="opacity:0.995" fill="#0000ff" d="M 7086.5,4298.5 C 7149.64,4293.61 7207.3,4308.78 7259.5,4344C 7316.43,4387.33 7348.93,4444.83 7357,4516.5C 7364.59,4585.14 7348.59,4647.47 7309,4703.5C 7261.64,4761.76 7200.14,4792.93 7124.5,4797C 7055.25,4801.13 6993.91,4781.47 6940.5,4738C 6889.84,4691.5 6862.67,4633.66 6859,4564.5C 6854.45,4492.15 6875.78,4428.81 6923,4374.5C 6968.06,4329.05 7022.56,4303.72 7086.5,4298.5 Z"/></g>
</svg>