<svg xmlns="http://www.w3.org/2000/svg" xmlns:xlink="http://www.w3.org/1999/xlink" version="1.1" style="shape-rendering:geometricPrecision; text-rendering:geometricPrecision; image-rendering:optimizeQuality; fill-rule:evenodd; clip-rule:evenodd" viewBox="55.2 1803.5 4905.37 1392.37">
<g><path style="opacity:0.993" fill="#000000" d="M 1197.5,1803.5 C 1291.5,1803.5 1385.5,1803.5 1479.5,1803.5C 1479.5,1991.17 1479.5,2178.83 1479.5,2366.5C 1484.76,2366.8 1489.93,2366.47 1495,2365.5C 1549.17,2255.72 1637,2191.55 1758.5,2173C 1817.59,2164.89 1875.93,2168.56 1933.5,2184C 2016.61,2209.79 2076.78,2261.95 2114,2340.5C 2137.71,2393.35 2152.05,2448.68 2157,2506.5C 2158.46,2521.8 2159.46,2537.14 2160,2552.5C 2160.5,2760.83 2160.67,2969.17 2160.5,3177.5C 2065.83,3177.5 1971.17,3177.5 1876.5,3177.5C 1876.67,2983.5 1876.5,2789.5 1876,2595.5C 1875.4,2563.56 1869.73,2532.56 1859,2502.5C 1834.87,2443.07 1790.7,2410.24 1726.5,2404C 1679.14,2398.17 1634.14,2405.84 1591.5,2427C 1549.76,2450.31 1519.92,2484.14 1502,2528.5C 1488.14,2563.49 1480.8,2599.82 1480,2637.5C 1479.5,2817.5 1479.33,2997.5 1479.5,3177.5C 1385.5,3177.5 1291.5,3177.5 1197.5,3177.5C 1197.5,2719.5 1197.5,2261.5 1197.5,1803.5 Z"/></g>
<g><path style="opacity:0.993" fill="#000000" d="M 525.5,2168.5 C 586.445,2167.23 646.445,2174.06 705.5,2189C 860.64,2233.15 945.474,2335.65 960,2496.5C 961.306,2641.82 961.973,2787.16 962,2932.5C 962.382,2949 968.549,2962.84 980.5,2974C 989.268,2979.78 998.935,2982.61 1009.5,2982.5C 1019.94,2981.9 1030.27,2980.57 1040.5,2978.5C 1040.5,3044.17 1040.5,3109.83 1040.5,3175.5C 985.898,3188.39 930.565,3193.55 874.5,3191C 837.757,3189.81 803.091,3180.81 770.5,3164C 730.745,3140.2 706.578,3105.37 698,3059.5C 696.106,3049.57 694.772,3039.57 694,3029.5C 689.822,3027.6 685.322,3026.93 680.5,3027.5C 672.055,3052.73 659.221,3075.4 642,3095.5C 599.641,3140.28 548.141,3169.44 487.5,3183C 413.409,3199.98 339.409,3199.65 265.5,3182C 141.749,3147.25 72.2488,3066.08 57,2938.5C 50.3628,2872.98 62.0295,2810.98 92,2752.5C 120.189,2703.98 158.689,2665.81 207.5,2638C 273.247,2603.73 343.247,2585.4 417.5,2583C 504.833,2582.5 592.166,2582.33 679.5,2582.5C 679.667,2562.83 679.5,2543.16 679,2523.5C 677.789,2446.3 639.289,2401.14 563.5,2388C 527.038,2382.96 491.371,2386.29 456.5,2398C 406.369,2417.26 378.369,2453.59 372.5,2507C 280.501,2507.5 188.501,2507.67 96.5,2507.5C 107.888,2381.81 168.555,2288.64 278.5,2228C 343.225,2194.98 411.892,2175.98 484.5,2171C 498.328,2170.22 511.994,2169.38 525.5,2168.5 Z M 487.5,2752.5 C 551.5,2752.5 615.5,2752.5 679.5,2752.5C 679.657,2771.18 679.157,2789.85 678,2808.5C 667.498,2901.33 616.664,2957.83 525.5,2978C 490.588,2984.8 455.921,2983.8 421.5,2975C 369.752,2959.19 343.085,2924.19 341.5,2870C 342.054,2813.52 369.387,2777.52 423.5,2762C 444.654,2756.62 465.988,2753.45 487.5,2752.5 Z"/></g>
<g><path style="opacity:0.993" fill="#000000" d="M 2791.5,2168.5 C 2852.63,2167.14 2912.63,2174.64 2971.5,2191C 3071.32,2221.51 3149.15,2280.68 3205,2368.5C 3241.12,2429.19 3261.78,2494.86 3267,2565.5C 3271.75,2626.54 3268.91,2687.21 3258.5,2747.5C 3038.17,2747.5 2817.83,2747.5 2597.5,2747.5C 2596.58,2788.99 2603.75,2828.99 2619,2867.5C 2650.08,2934.49 2702.58,2971.66 2776.5,2979C 2826.66,2984.59 2874.32,2976.25 2919.5,2954C 2953.84,2935.66 2978.34,2908.49 2993,2872.5C 2994.35,2869.28 2995.19,2865.95 2995.5,2862.5C 3089.17,2862.5 3182.83,2862.5 3276.5,2862.5C 3260.54,2957.62 3214.54,3034.46 3138.5,3093C 3062.57,3150.32 2976.91,3183.32 2881.5,3192C 2802,3200.71 2723.67,3194.71 2646.5,3174C 2533.88,3139.35 2447.05,3071.85 2386,2971.5C 2344.37,2897.68 2321.37,2818.35 2317,2733.5C 2310.93,2652.29 2319.26,2572.62 2342,2494.5C 2377.45,2384.35 2443.95,2298.52 2541.5,2237C 2595.89,2204.49 2654.55,2183.82 2717.5,2175C 2742.22,2171.64 2766.89,2169.48 2791.5,2168.5 Z M 2773.5,2382.5 C 2817.6,2378.68 2859.6,2386.18 2899.5,2405C 2945.83,2430.75 2973.66,2469.92 2983,2522.5C 2985.36,2535.4 2986.52,2548.4 2986.5,2561.5C 2858.17,2561.5 2729.83,2561.5 2601.5,2561.5C 2603.71,2500.9 2628.71,2452.4 2676.5,2416C 2706.1,2396.74 2738.44,2385.58 2773.5,2382.5 Z"/></g>
<g><path style="opacity:0.993" fill="#000000" d="M 4013.5,2168.5 C 4159.22,2166.95 4257.22,2234.28 4307.5,2370.5C 4314.06,2371.81 4320.56,2371.81 4327,2370.5C 4385.16,2235.53 4488.16,2168.2 4636,2168.5C 4789.25,2171.93 4888.91,2246.6 4935,2392.5C 4949.6,2442.12 4957.94,2492.78 4960,2544.5C 4960.5,2755.5 4960.67,2966.5 4960.5,3177.5C 4865.83,3177.5 4771.17,3177.5 4676.5,3177.5C 4676.67,2980.5 4676.5,2783.5 4676,2586.5C 4675.08,2544.17 4665.08,2504.17 4646,2466.5C 4617.69,2422.34 4577.02,2401 4524,2402.5C 4445.76,2403.26 4391.76,2439.59 4362,2511.5C 4349.3,2546.69 4342.97,2583.03 4343,2620.5C 4342.5,2806.17 4342.33,2991.83 4342.5,3177.5C 4247.83,3177.5 4153.17,3177.5 4058.5,3177.5C 4058.67,2978.83 4058.5,2780.17 4058,2581.5C 4056.83,2548 4050.17,2515.67 4038,2484.5C 4012.27,2428.69 3968.43,2401.36 3906.5,2402.5C 3826.34,2404.19 3771.5,2442.19 3742,2516.5C 3730.94,2546.83 3725.28,2578.17 3725,2610.5C 3724.5,2799.5 3724.33,2988.5 3724.5,3177.5C 3630.5,3177.5 3536.5,3177.5 3442.5,3177.5C 3442.5,2847.5 3442.5,2517.5 3442.5,2187.5C 3524.83,2187.33 3607.17,2187.5 3689.5,2188C 3701.07,2248.37 3712.07,2308.87 3722.5,2369.5C 3728.5,2369.5 3734.5,2369.5 3740.5,2369.5C 3759.38,2320.88 3787.38,2278.38 3824.5,2242C 3878.24,2194.14 3941.24,2169.64 4013.5,2168.5 Z"/></g>
</svg>